<?xml version="1.0" encoding="utf-8"?>
<!-- Designed by Vexels.com - 2016 All Rights Reserved - https://vexels.com/terms-and-conditions/  -->

<svg version="1.1" id="Layer_1" xmlns="http://www.w3.org/2000/svg" xmlns:xlink="http://www.w3.org/1999/xlink" x="0px" y="0px"
	fill="steelblue" width="800px" height="800px" viewBox="0 0 1200 1200" enable-background="new 0 0 1200 1200" xml:space="preserve">
<g>
	<g>
		<g>
			<g>
				<g>
					<path fill="#1C3452" d="M391.866,599.251c0,19.445,2.673,38.322,7.715,56.176c1.9,6.836,4.165,13.527,6.738,20.058
						c9.413,23.922,23.198,45.678,40.276,64.348c4.78,5.199,9.825,10.138,15.068,14.82c22.684,20.264,49.896,35.594,79.833,44.389
						c6.738,2.004,13.578,3.598,20.575,4.937c12.342,2.263,24.998,3.447,37.961,3.447c12.958,0,25.613-1.186,37.91-3.447
						c6.993-1.284,13.836-2.934,20.578-4.937c34.305-10.031,64.915-28.701,89.448-53.496c4.938-5.039,9.668-10.287,14.096-15.793
						c15.843-19.646,28.187-42.176,36.107-66.764c2.156-6.638,3.963-13.479,5.452-20.421c2.985-13.995,4.525-28.446,4.525-43.315
						c0-19.027-2.57-37.443-7.409-54.934c-1.847-6.843-4.062-13.578-6.581-20.113c-9.312-23.971-22.938-45.832-39.864-64.555
						c-4.786-5.193-9.724-10.183-14.968-14.912c-22.893-20.683-50.407-36.318-80.808-45.215c-6.742-2.011-13.585-3.652-20.578-4.938
						c-12.297-2.266-24.95-3.449-37.91-3.449c-12.963,0-25.62,1.186-37.961,3.449c-6.997,1.286-13.836,2.929-20.575,4.938
						c-34.771,10.182-65.738,29.215-90.426,54.472c-4.939,5.038-9.569,10.338-13.989,15.844
						c-15.694,19.7-27.886,42.331-35.65,66.919c-2.113,6.687-3.911,13.528-5.354,20.472v0.055
						C393.305,570.86,391.866,584.905,391.866,599.251z M519.482,599.251c0-44.391,36.111-80.547,80.553-80.547
						c44.389,0,80.497,36.156,80.497,80.547c0,44.445-36.106,80.553-80.497,80.553C555.594,679.804,519.482,643.696,519.482,599.251
						z"/>
				</g>
			</g>
		</g>
		<g>
			<g>
				<path fill="#1C3452" d="M435.944,224.578c22.844,61.007,88.063,113.938,105.555,127.308v47.638
					c6.738-2.011,13.578-3.652,20.575-4.938c12.343-2.266,24.998-3.45,37.961-3.45c12.958,0,25.613,1.186,37.91,3.45
					c6.993,1.286,13.836,2.929,20.578,4.938v-47.638c17.484-13.37,82.654-66.301,105.547-127.308
					c16.257-43.411,2.981-59.46-6.378-65.122c-18.155-11.058-47.221,0.262-72.373,28.09c-14.967,16.562-23.557,21.861-27.521,23.609
					c0.056-0.412,0.156-0.773,0.263-1.187c2.572-8.434,16.457-94.592-13.788-137.078C634.086,58.64,619.684,50.718,602.556,50
					h-4.628c-17.593,0.718-31.995,8.64-42.184,22.893c-30.241,42.436-16.354,128.645-13.833,137.077
					c0.15,0.412,0.259,0.773,0.308,1.187c-3.959-1.748-12.548-7.048-27.52-23.609c-25.154-27.828-54.266-39.146-72.373-28.09
					C432.963,165.118,419.639,181.167,435.944,224.578z"/>
			</g>
		</g>
		<g>
			<g>
				<path fill="#1C3452" d="M442.326,1040.537c18.159,11.061,47.218-0.255,72.373-28.084c14.972-16.562,23.561-21.911,27.52-23.609
					c-0.05,0.361-0.157,0.773-0.308,1.188c-2.521,8.434-16.41,94.592,13.833,137.078c10.188,14.252,24.591,22.174,41.72,22.891
					h4.625c17.596-0.717,31.997-8.639,42.131-22.891c30.297-42.486,16.412-128.646,13.84-137.078
					c-0.105-0.412-0.207-0.824-0.263-1.188c3.966,1.698,12.556,7.048,27.521,23.609c25.152,27.829,54.218,39.096,72.373,28.084
					c9.359-5.705,22.635-21.755,6.378-65.171c-22.893-60.951-88.062-113.882-105.547-127.31V799.04
					c-6.742,2.004-13.585,3.652-20.578,4.938c-12.297,2.262-24.95,3.446-37.91,3.446c-12.963,0-25.62-1.186-37.961-3.446
					c-6.997-1.341-13.836-2.935-20.575-4.938v49.018c-17.491,13.429-82.71,66.357-105.555,127.309
					C419.639,1018.782,432.963,1034.832,442.326,1040.537z"/>
			</g>
		</g>
		<g>
			<g>
				<path fill="#1C3452" d="M739.329,444.737c5.244,4.729,10.182,9.719,14.968,14.912c16.927,18.723,30.554,40.584,39.864,64.555
					c2.519,6.535,4.734,13.271,6.581,20.113l40.943-25.408c20.578,7.815,99.95,35.283,163.782,22.58
					c45.472-9.054,52.108-28.753,52.003-39.765c-0.156-21.188-25.102-39.966-62.032-46.7c-21.912-3.965-31.018-8.439-34.516-10.906
					c0.307-0.156,0.718-0.263,1.131-0.361c8.491-2.315,89.038-35.956,109.208-84.049c6.732-16.154,5.859-32.562-2.574-47.479
					l-2.42-3.959c-9.877-14.558-24.229-22.634-41.662-23.765c-52.108-3.29-117.949,53.96-123.813,60.54
					c-0.255,0.312-0.563,0.618-0.824,0.824c-0.618-4.271-0.618-14.352,5.555-35.801c10.395-36.059,4.684-66.715-14.294-76.334
					c-9.775-4.938-30.402-7.766-58.693,28.96c-39.763,51.542-50.411,134.868-52.571,156.784L739.329,444.737z"/>
			</g>
		</g>
		<g>
			<g>
				<path fill="#1C3452" d="M131.28,887.771l2.468,3.959c9.875,14.508,24.178,22.579,41.667,23.715
					c51.851,3.188,117.945-53.908,123.759-60.49c0.31-0.361,0.564-0.617,0.873-0.88c0.618,4.271,0.618,14.353-5.555,35.802
					c-10.388,36.063-4.682,66.771,14.3,76.338c3.035,1.543,7.148,2.879,12.193,2.879c11.162,0,27.005-6.529,46.5-31.787
					c39.756-51.594,50.356-134.874,52.566-156.836l41.613-25.817c-5.243-4.684-10.289-9.621-15.068-14.82
					c-17.08-18.67-30.864-40.426-40.276-64.348c-2.573-6.529-4.838-13.222-6.738-20.058l-41.253,25.613
					c-20.574-7.816-99.944-35.289-163.828-22.58c-45.421,9.053-52.057,28.804-52.006,39.76
					c0.205,21.243,25.102,40.021,62.037,46.705c21.959,3.965,31.015,8.49,34.564,10.957c-0.359,0.105-0.722,0.256-1.128,0.361
					c-8.491,2.266-89.043,35.85-109.206,83.998C122.024,856.392,122.897,872.854,131.28,887.771z"/>
			</g>
		</g>
		<g>
			<g>
				<path fill="#1C3452" d="M747.971,745.544l43.209,23.046c3.548,21.754,19.439,104.212,62.442,153.129
					c19.908,22.686,35.494,28.858,46.552,28.858c5.967,0,10.6-1.806,13.889-3.758c18.315-10.75,22.068-41.714,9.363-77.052
					c-7.565-20.987-8.177-31.126-7.82-35.389c0.31,0.201,0.618,0.512,0.873,0.818c6.281,6.173,75.721,59.104,127.414,52.467
					c17.387-2.26,31.172-11.211,39.865-25.975l2.209-4.113c7.617-15.793,7.461-32.256-0.305-47.943
					c-23.146-46.654-105.703-75.096-114.349-76.844c-0.465-0.105-0.824-0.207-1.181-0.313c3.394-2.672,12.135-7.766,33.79-13.114
					c36.419-9.054,60.081-29.371,58.897-50.614c-0.617-10.956-8.482-30.194-54.423-36.317
					c-64.552-8.641-141.966,23.92-162.032,32.974l-42.74-22.837c-1.489,6.941-3.296,13.783-5.452,20.421
					c-7.923,24.588-20.265,47.117-36.107,66.764C757.639,735.257,752.907,740.505,747.971,745.544z"/>
			</g>
		</g>
		<g>
			<g>
				<path fill="#1C3452" d="M114.358,390.364c23.197,46.707,105.705,75.098,114.347,76.846c0.407,0.056,0.819,0.156,1.184,0.312
					c-3.397,2.673-12.14,7.716-33.797,13.115c-36.418,9.052-60.078,29.371-58.948,50.564c0.618,10.955,8.489,30.244,54.474,36.367
					c7.408,0.975,15.019,1.438,22.686,1.438c58.896,0,121.597-26.389,139.344-34.46l42.434,22.682
					c1.442-6.942,3.241-13.785,5.354-20.472c7.765-24.588,19.957-47.219,35.649-66.919c4.421-5.506,9.051-10.806,13.99-15.844
					l-42.232-22.634c-3.551-21.757-19.497-104.214-62.451-153.129c-30.603-34.828-50.971-30.714-60.438-25.103
					c-18.31,10.802-22.065,41.765-9.409,77.103c7.562,20.937,8.229,31.067,7.866,35.338c-0.305-0.205-0.618-0.461-0.922-0.769
					c-6.225-6.225-75.772-59.153-127.417-52.469c-17.331,2.211-31.118,11.213-39.809,25.976l-2.215,4.063
					C106.386,358.216,106.592,374.677,114.358,390.364z"/>
			</g>
		</g>
	</g>
</g>
</svg>
